<?xml version="1.0" encoding="utf-8"?>
<!-- Generator: Adobe Illustrator 19.0.0, SVG Export Plug-In . SVG Version: 6.00 Build 0)  -->
<svg version="1.1" id="Layer_1" xmlns="http://www.w3.org/2000/svg" xmlns:xlink="http://www.w3.org/1999/xlink" x="0px" y="0px"
	 viewBox="0 0 1366 768" style="enable-background:new 0 0 1366 768;" xml:space="preserve">
<style type="text/css">
	.st0{fill:url(#SVGID_1_);}
	.st1{fill:none;}
	.st2{opacity:0.54;fill:url(#SVGID_2_);enable-background:new    ;}
</style>
<linearGradient id="SVGID_1_" gradientUnits="userSpaceOnUse" x1="0" y1="665.9673" x2="1375.4" y2="665.9673">
	<stop  offset="0" style="stop-color:#27AAE1"/>
	<stop  offset="4.726515e-002" style="stop-color:#2298D5"/>
	<stop  offset="0.103" style="stop-color:#1F88C9"/>
	<stop  offset="0.16" style="stop-color:#1E7DC2"/>
	<stop  offset="0.2185" style="stop-color:#1C77BD"/>
	<stop  offset="0.2809" style="stop-color:#1C75BC"/>
	<stop  offset="0.6685" style="stop-color:#27AAE1"/>
	<stop  offset="0.8876" style="stop-color:#27AAE1"/>
	<stop  offset="1" style="stop-color:#1C75BC"/>
</linearGradient>
<path class="st0" d="M1375.4,589.1h-3.2V765H0V589.2c97.1,40.8,231.1,84.3,304.8,52.6c175.4-75.3,642,129.1,818.1,1.9
	C1257.3,546.6,1333.7,558.1,1375.4,589.1z"/>
<line class="st1" x1="0" y1="586.9" x2="0" y2="587.4"/>
<line class="st1" x1="0" y1="562.5" x2="0" y2="586.9"/>
<line class="st1" x1="0" y1="561.5" x2="0" y2="562.5"/>
<linearGradient id="SVGID_2_" gradientUnits="userSpaceOnUse" x1="0" y1="660.7848" x2="1375.4" y2="660.7848">
	<stop  offset="0" style="stop-color:#27AAE1"/>
	<stop  offset="4.726515e-002" style="stop-color:#2298D5"/>
	<stop  offset="0.103" style="stop-color:#1F88C9"/>
	<stop  offset="0.16" style="stop-color:#1E7DC2"/>
	<stop  offset="0.2185" style="stop-color:#1C77BD"/>
	<stop  offset="0.2809" style="stop-color:#1C75BC"/>
	<stop  offset="0.6685" style="stop-color:#27AAE1"/>
	<stop  offset="0.8876" style="stop-color:#27AAE1"/>
	<stop  offset="1" style="stop-color:#1C75BC"/>
</linearGradient>
<path class="st2" d="M1375.4,574.8h-3.2V769H0V574.8c97.1,40.8,231.1,84.3,304.8,52.6c175.4-75.3,642,129.1,818.1,1.9
	C1257.3,532.2,1333.7,543.7,1375.4,574.8z"/>
</svg>
