<svg version="1.1" xmlns="http://www.w3.org/2000/svg" xmlns:xlink="http://www.w3.org/1999/xlink" x="0px" y="0px"
	 viewBox="0 0 500 500" style="enable-background:new 0 0 500 500;" xml:space="preserve">
<style type="text/css">

@keyframes kaboom {
  10% {
    
	opacity: 0;
  }
  100% {
  opacity: 1;

  }
}
@keyframes kaboom3 {
  10% {
    
	opacity: 0;
  }
  100% {
  opacity: .4;

  }
}
@keyframes kaboom2 {
  0% {
    
	opacity: 0;
  }
  100% {
  opacity: 1;

  }
}


.st4{
 animation: kaboom2 5s ease infinite;
 <!-- animation-delay: 1s; -->
}

.st4:nth-child(10) {
    animation-delay: 0.4s;
  }
.st4:nth-child(16) {
    animation-delay: 0.6s;
  }
.st4:nth-child(4) {
    animation-delay: 0.8s;
  }
.st4:nth-child(5) {
    animation-delay: 0.10s;
  }
.st4:nth-child(13) {
    animation-delay: 0.12s;
  }
.st4:nth-child(15) {
    animation-delay: 0.14s;
  }
.st4:nth-child(8) {
    animation-delay: 0.16s;
  }
.st4:nth-child(9) {
    animation-delay: 0.18s;
  }
.st4:nth-child(2) {
    animation-delay: 0.20s;
  }
.st4:nth-child(11) {
    animation-delay: 0.22s;
  }
.st4:nth-child(12) {
    animation-delay: 0.24s;
  }
.st4:nth-child(6) {
    animation-delay: 0.26s;
  }
.st4:nth-child(14) {
    animation-delay: 0.28s;
  }
.st4:nth-child(7) {
    animation-delay: 0.30s;
  }
.st4:nth-child(3) {
    animation-delay: 0.32s;
  }


.st9 {
 animation: kaboom 5s ease infinite;
 animation-delay: .5s;
}
 .st9:nth-child(2), .st1:nth-child(2)   {
    animation-delay: 0s;
  }
  .st9:nth-child(3), .st1:nth-child(3) {
    animation-delay: 0.8s;
  }
  .st9:nth-child(4), .st1:nth-child(4) {
    animation-delay: 0.12s;
  }
  .st9:nth-child(5), .st1:nth-child(5) {
    animation-delay: 0.16s;
  }
  .st9:nth-child(6), .st1:nth-child(6) {
    animation-delay: 0.24s;
  }
  .st9:nth-child(6), .st1:nth-child(6) {
    animation-delay: 0.20s;
  }
.st1 {
 animation: kaboom3 5s ease infinite;
 animation-delay: .5s;
}
  .st1:nth-child(2)   {
    animation-delay: 0s;
  }
.st1:nth-child(3) {
    animation-delay: 0.8s;
  }
.st1:nth-child(4) {
    animation-delay: 0.12s;
  }
.st1:nth-child(5) {
    animation-delay: 0.16s;
  }
.st1:nth-child(6) {
    animation-delay: 0.24s;
  }
.st1:nth-child(6) {
    animation-delay: 0.20s;
  }
	.st0{fill:#FFFFFF;}
	.st1{opacity:0.21;}
	.st2{fill:#414042;}
	.st3{fill:#D1D3D4;}
	.st4{font-family:'MyriadPro-Regular';}
	.st5{font-size:6.0844px;}
	.st6{font-size:4.8578px;}
	.st7{font-size:5.7419px;}
	.st8{opacity:0.28;fill:#414042;}
	.st9{fill:#27AAE1;}
</style>
<g id="Layer_3">
	<rect id="XMLID_1_" x="1" class="st0" width="499" height="500"/>
	<g id="Layer_4">
		<path id="blue-animate-2_1_" class="st1" d="M131.1,284.4l-31.6-22.7c-2.8-2-2.8-5.6,0-7.6l24.6-17.7L131.1,284.4z"/>
		<path id="blue-animate-1_1_" class="st1" d="M237.4,159.6l-0.1,34.7l-5.7,4.1l-22.9,16.5L194.5,225l-16.2,11.7l-7.7,5.5L152,255.6
			l-3.1,2.2l2.5,1.8c-0.6,4.3-1.3,8.6-2,13h-0.6c-0.6-6.7-1.3-13.3-2-19.9c-0.7-6.6-1.4-13.2-2-19.7l-1.2-10.6l15.8-11.4l28.7-20.7
			l44.9-32.3C234.7,156.7,237.4,157.7,237.4,159.6z"/>
		<path id="blue-animate-3_1_" class="st1" d="M228.2,354.2l-75.7-54.5h8.7l4.8-29.6l20.4,14.7l20.7,14.9l30.1,21.7l0,29.4
			C237.4,354.7,231.8,356.8,228.2,354.2z"/>
		<path id="blue-animate-4_1_" class="st1" d="M267.8,174.2h-18.3c-0.4,0-0.7,0.2-0.7,0.6v23.8l-3.1-2.2c-0.9-0.6-1.4-1.6-1.4-2.6
			l-0.1-34c0-1.5,2.1-2.3,3.5-1.3l20.5,14.8C268.7,173.5,268.4,174.2,267.8,174.2z"/>
		<polygon id="blue-animate-5_1_" class="st1" points="332.6,219.5 332.6,258.8 305.2,239.1 283.2,223.3 271.3,214.7 271.3,198.1 
			302.8,198.1 		"/>
		<path id="blue-animate-7_1_" class="st1" d="M332.6,259v39.3l-79.2,57c-3.6,2.6-9.1,0.5-9.1-3.4l0-28.1c0-0.8,0.4-1.6,1.2-2.1
			l30.5-21.9h36.8v-23.9h-3.6L332.6,259z"/>
		<path id="blue-animate-6_1_" class="st1" d="M386.3,258.1c0.6,0.4,0.6,1.2,0,1.7l0,0l-24.7,17.8c-0.2,0.2-0.6,0.3-0.9,0.3h-4.2
			c-0.7,0-1.3-0.5-1.3-1.1v-30.1c0-0.6,0.6-1.1,1.3-1.1h11.3c0.1,0,0.3,0,0.4,0c0.3,0,0.6,0.1,0.9,0.3l17.1,12.3L386.3,258.1z"/>
	</g>
</g>
<g id="Main-text">
	<path id="XMLID_10_" class="st2" d="M233.4,173.2l-3.4,24.1l-14.3,101.4h-28.3l-2.6-14.9l-7.2-42.1c-0.3-2-0.7-4-1-6.1
		c-0.4-2.9-0.9-5.8-1.2-8.7c-0.7-4.9-1.3-9.7-1.8-14.4H173c-0.6,4.6-1.2,9.4-1.9,14.4c-0.6,4.8-1.4,9.5-2.1,14.2
		c0,0.2-0.1,0.4-0.1,0.5l-4.5,27.4l-4.8,29.6h-27.8l-2.3-15.4l-7.1-48l-9.2-62.2h23.1l5.6,48.1l1.2,10.6c0.6,6.5,1.3,13.1,2,19.7
		c0.7,6.6,1.4,13.3,2,19.9h0.6c0.7-4.3,1.3-8.7,1.9-13c0.2-1.3,0.4-2.7,0.6-4c0.1-1,0.3-2,0.4-3c1-6.6,2-13.2,3-19.7l4-22l6.7-36.8
		h19.1l2.9,16.1l6.3,34.8l1.4,7.9c1,6.4,2,12.9,3,19.5c1,6.6,2,13.3,3,20.1h0.6c0.7-6.8,1.4-13.5,2.1-20c0.7-6.6,1.4-13.1,2.1-19.6
		l2.1-18.1l4.8-40.6H233.4z"/>
	<polygon id="XMLID_31_" class="st2" points="311.1,274.9 311.1,298.7 247.2,298.7 247.2,173.2 309.6,173.2 309.6,197.1 
		269.7,197.1 269.7,222.3 303.6,222.3 303.6,246 269.7,246 269.7,274.9 	"/>
	<path id="XMLID_9_" d="M384.5,257c0.1,0.6,0.1,1.2,0.1,1.8l1.2-0.8L384.5,257z M331,258l0.1-0.1l-0.1-0.1V258z"/>
	<path id="XMLID_57_" class="st2" d="M405.3,250.5c-0.9-3.3-2.2-6.1-3.8-8.6c-1.6-2.4-3.5-4.5-5.7-6.1c-2.1-1.6-4.5-2.8-7-3.6v-0.8
		c2-0.9,3.8-2.3,5.4-4.2c1.6-1.9,2.9-4.1,4.1-6.6c1.1-2.4,2-5.1,2.6-7.9c0.6-2.8,0.9-5.6,0.9-8.5c0-6-0.9-11-2.8-15
		c-1.9-4-4.5-7.2-7.8-9.6c-3.3-2.4-7.2-4.1-11.6-5.1c-4.4-1-9.3-1.4-14.4-1.4H331v84.6l0.1,0.1L331,258v40.7h37
		c5.4,0,10.4-0.7,15.1-2.2c4.7-1.5,8.8-3.7,12.3-6.7c3.5-3,6.3-6.8,8.3-11.5c2-4.6,3-10.1,3-16.6
		C406.7,257.5,406.2,253.8,405.3,250.5z M353.5,195.1h10.7c5.3,0,9.2,1,11.8,3.1c2.6,2.1,3.8,5.5,3.8,10.4c0,4.5-1.2,8.1-3.7,10.8
		c-2.5,2.7-6.5,4-12,4h-10.5V195.1z M384.7,259.8c0,11.3-6.2,16.9-18.5,16.9h-12.7v-32.4h12.7c0.3,0,0.6,0,0.9,0
		c5.8,0.1,10.1,1.3,13,3.5c2.5,1.9,4,4.9,4.4,9l1.3,0.9l-1.2,0.8C384.7,259.1,384.7,259.5,384.7,259.8z"/>
	<text id="text-5" transform="matrix(1 0 0 1 222.3374 291.1299)" class="st3 st4 st5">HTML5</text>
	<text id="text-8" transform="matrix(1 0 0 1 185.6621 178.7373)" class="st3 st4 st5">Vue.js</text>
	<text id="text-6" transform="matrix(1 0 0 1 227.7461 251.9199)" class="st3 st4 st5">SCSS</text>
	<text id="text-16" transform="matrix(1 0 0 1 222.6758 271.1865)" class="st3 st4 st5">CSS Grid</text>
	<text id="text-7" transform="matrix(1 0 0 1 275.7451 169.2168)" class="st3 st4 st5">Greensock</text>
	<text id="text-15" transform="matrix(1 0 0 1 313.9414 185.667)" class="st3 st4 st5">GSAP</text>
	<text id="text-14" transform="matrix(1 0 0 1 140.6206 192.8379)" class="st3 st4 st6">Nuxt JS</text>
	<text id="text-13" transform="matrix(1 0 0 1 275.8575 266.3418)" class="st3 st4 st5">Laravel/ Lumen</text>
	<text id="text-12" transform="matrix(1 0 0 1 227.7456 233.5537)" class="st3 st4 st5">T-SQL</text>
	<text id="text-11" transform="matrix(1 0 0 1 229.774 214.2861)" class="st3 st4 st5">.Net</text>
	<text id="text-2" transform="matrix(1 0 0 1 280.1387 257.666)" class="st3 st4 st5">REST API</text>
	<text id="text-10" transform="matrix(1 0 0 1 356.5176 204.9346)" class="st3 st4 st5">Vuetify</text>
	<text id="text-4" transform="matrix(1 0 0 1 356.1807 215.751)" class="st3 st4 st5">Bootsrap</text>
	<text id="text-9" transform="matrix(1 0 0 1 170.7896 260.0322)" class="st3 st4 st5">Git</text>
	<text id="text-3" transform="matrix(1 0 0 1 139.001 179.4438)" class="st3 st4 st7">npm/yarn</text>
	<text id="text-1" transform="matrix(1 0 0 1 223.9151 304.9893)" class="st3 st4 st5">{ code }</text>
	<path id="XMLID_7_" class="st8" d="M235.4,175.5l-3.4,24.1l-14.3,101.4h-28.3l-2.6-14.9l-7.2-42.1c-0.3-2-0.7-4-1-6.1
		c-0.4-2.9-0.9-5.8-1.2-8.7c-0.7-4.9-1.3-9.7-1.8-14.4H175c-0.6,4.6-1.2,9.4-1.9,14.4c-0.6,4.8-1.4,9.5-2.1,14.2
		c0,0.2-0.1,0.4-0.1,0.5l-4.5,27.4l-4.8,29.6h-27.8l-2.3-15.4l-7.1-48l-9.2-62.2h23.1l5.6,48.1l1.2,10.6c0.6,6.5,1.3,13.1,2,19.7
		c0.7,6.6,1.4,13.3,2,19.9h0.6c0.7-4.3,1.3-8.7,1.9-13c0.2-1.3,0.4-2.7,0.6-4c0.1-1,0.3-2,0.4-3c1-6.6,2-13.2,3-19.7l4-22l6.7-36.8
		h19.1l2.9,16.1l6.3,34.8l1.4,7.9c1,6.4,2,12.9,3,19.5c1,6.6,2,13.3,3,20.1h0.6c0.7-6.8,1.4-13.5,2.1-20c0.7-6.6,1.4-13.1,2.1-19.6
		l2.1-18.1l4.8-40.6H235.4z"/>
	<polygon id="XMLID_6_" class="st8" points="313.1,277.2 313.1,301.1 249.2,301.1 249.2,175.5 311.6,175.5 311.6,199.4 271.7,199.4 
		271.7,224.6 305.6,224.6 305.6,248.3 271.7,248.3 271.7,277.2 	"/>
	<path id="XMLID_2_" class="st8" d="M407.3,251.8c-0.9-3.3-2.2-6.1-3.8-8.6c-1.6-2.4-3.5-4.5-5.7-6.1c-2.1-1.6-4.5-2.8-7-3.6v-0.8
		c2-0.9,3.8-2.3,5.4-4.2c1.6-1.9,2.9-4.1,4.1-6.6c1.1-2.4,2-5.1,2.6-7.9c0.6-2.8,0.9-5.6,0.9-8.5c0-6-0.9-11-2.8-15
		c-1.9-4-4.5-7.2-7.8-9.6c-3.3-2.4-7.2-4.1-11.6-5.1c-4.4-1-9.3-1.4-14.4-1.4H333v84.6l0.1,0.1l-0.1,0.1v40.7h37
		c5.4,0,10.4-0.7,15.1-2.2c4.7-1.5,8.8-3.7,12.3-6.7c3.5-3,6.3-6.8,8.3-11.5c2-4.6,3-10.1,3-16.6
		C408.7,258.9,408.2,255.1,407.3,251.8z M355.5,196.5h10.7c5.3,0,9.2,1,11.8,3.1c2.6,2.1,3.8,5.5,3.8,10.4c0,4.5-1.2,8.1-3.7,10.8
		c-2.5,2.7-6.5,4-12,4h-10.5V196.5z M386.7,261.2c0,11.3-6.2,16.9-18.5,16.9h-12.7v-32.4h12.7c0.3,0,0.6,0,0.9,0
		c5.8,0.1,10.1,1.3,13,3.5c2.5,1.9,4,4.9,4.4,9l1.3,0.9l-1.2,0.8C386.7,260.4,386.7,260.8,386.7,261.2z"/>
</g>
<g id="Code">
	<path id="blue-animate-2" class="st9" d="M129.5,283.4l-31.6-22.7c-2.8-2-2.8-5.6,0-7.6l24.6-17.7L129.5,283.4z"/>
	<path id="blue-animate-1" class="st9" d="M235.7,158.6l-0.1,34.7l-5.7,4.1l-22.9,16.5L192.8,224l-16.2,11.7l-7.7,5.5l-18.7,13.4
		l-3.1,2.2l2.5,1.8c-0.6,4.3-1.3,8.6-2,13h-0.6c-0.6-6.7-1.3-13.3-2-19.9c-0.7-6.6-1.4-13.2-2-19.7l-1.2-10.6l15.8-11.4l28.7-20.7
		l44.9-32.3C233.1,155.7,235.8,156.7,235.7,158.6z"/>
	<path id="blue-animate-3" class="st9" d="M226.6,353.2l-75.7-54.5h8.7l4.8-29.6l20.4,14.7l20.7,14.9l30.1,21.7l0,29.4
		C235.7,353.7,230.2,355.8,226.6,353.2z"/>
	<path id="blue-animate-4" class="st9" d="M266.2,173.2h-18.3c-0.4,0-0.7,0.2-0.7,0.6v23.8l-3.1-2.2c-0.9-0.6-1.4-1.6-1.4-2.6
		l-0.1-34c0-1.5,2.1-2.3,3.5-1.3l20.5,14.8C267.1,172.5,266.8,173.2,266.2,173.2z"/>
	<polygon id="blue-animate-5" class="st9" points="331,218.5 331,257.8 303.6,238.1 281.6,222.3 269.7,213.7 269.7,197.1 
		301.2,197.1 	"/>
	<path id="blue-animate-7" class="st9" d="M331,258v39.3l-79.2,57c-3.6,2.6-9.1,0.5-9.1-3.4l0-28.1c0-0.8,0.4-1.6,1.2-2.1l30.5-21.9
		h36.8v-23.9h-3.6L331,258z"/>
	<path id="blue-animate-6" class="st9" d="M384.6,257.1c0.6,0.4,0.6,1.2,0,1.7l0,0l-24.7,17.8c-0.2,0.2-0.6,0.3-0.9,0.3h-4.2
		c-0.7,0-1.3-0.5-1.3-1.1v-30.1c0-0.6,0.6-1.1,1.3-1.1h11.3c0.1,0,0.3,0,0.4,0c0.3,0,0.6,0.1,0.9,0.3l17.1,12.3L384.6,257.1z"/>
</g>
</svg>
